<?xml version="1.0" standalone="no"?>
<!DOCTYPE svg PUBLIC "-//W3C//DTD SVG 20010904//EN"
 "http://www.w3.org/TR/2001/REC-SVG-20010904/DTD/svg10.dtd">
<svg version="1.0" xmlns="http://www.w3.org/2000/svg"
 width="700.000000pt" height="700.000000pt" viewBox="0 0 700.000000 700.000000"
 preserveAspectRatio="xMidYMid meet">
<metadata>
Created by potrace 1.11, written by Peter Selinger 2001-2013
</metadata>
<g transform="translate(0.000000,700.000000) scale(0.100000,-0.100000)"
fill="#000000" stroke="none">
<path d="M5110 6984 c-161 -24 -281 -55 -390 -101 -36 -15 -229 -110 -259
-128 -145 -86 -371 -296 -474 -442 -139 -196 -248 -446 -283 -648 -2 -16 -7
-37 -9 -45 -11 -39 -19 -167 -19 -280 0 -187 17 -307 65 -465 11 -38 23 -80
26 -92 4 -19 -38 -65 -246 -273 -138 -139 -251 -254 -251 -257 0 -4 136 -142
302 -308 l301 -302 38 19 c90 43 245 55 364 28 68 -15 162 -62 222 -109 l50
-40 114 115 c86 87 119 114 134 110 11 -2 65 -16 120 -31 55 -14 118 -28 140
-31 22 -3 54 -7 70 -10 17 -3 98 -7 180 -9 274 -5 529 52 769 172 273 137 515
360 674 621 29 48 57 96 62 107 4 11 21 49 38 85 52 114 99 266 118 384 3 21
8 48 11 60 3 11 6 98 8 191 4 196 -10 320 -41 362 -46 61 -129 82 -191 49 -15
-8 -109 -96 -208 -196 -188 -189 -269 -260 -345 -302 -58 -32 -152 -67 -198
-74 -21 -3 -44 -7 -52 -10 -16 -6 -162 -6 -200 0 -101 15 -207 54 -295 108
-71 45 -193 172 -238 248 -118 203 -130 452 -32 667 51 112 83 151 312 382
220 223 234 241 226 311 -4 36 -42 93 -73 110 -63 33 -384 48 -540 24z"/>
<path d="M593 6569 c-23 -4 -54 -14 -70 -23 -45 -22 -462 -445 -485 -490 -26
-50 -27 -139 -4 -185 10 -18 63 -94 119 -169 225 -305 299 -406 442 -600 161
-219 194 -255 252 -271 98 -27 161 -6 254 86 37 36 72 64 78 62 6 -2 515 -508
1131 -1124 l1120 -1120 -79 -80 c-43 -44 -87 -95 -96 -114 -26 -53 -30 -129
-8 -179 14 -34 260 -285 1088 -1114 589 -589 1093 -1088 1121 -1109 215 -164
536 -181 773 -42 170 100 288 264 335 464 17 73 15 241 -4 314 -19 74 -75 192
-119 249 -67 89 -2173 2188 -2211 2204 -50 21 -97 25 -154 11 -42 -10 -64 -25
-136 -96 l-87 -83 -1127 1126 -1126 1126 65 66 c36 37 73 82 82 102 20 41 25
120 10 164 -23 69 -25 71 -377 330 -52 38 -135 99 -185 136 -86 64 -191 141
-356 262 -124 91 -171 110 -246 97z"/>
<path d="M1242 2231 c-596 -597 -1095 -1104 -1110 -1126 -48 -74 -90 -170
-108 -250 -13 -58 -12 -240 1 -296 33 -134 82 -231 162 -319 149 -164 340
-245 554 -236 52 3 105 7 119 10 56 12 147 48 209 83 78 43 213 174 1259 1223
l712 715 -35 40 c-48 54 -101 166 -118 248 -24 113 -10 259 34 351 11 22 19
41 19 43 0 7 -601 603 -608 602 -4 -1 -494 -490 -1090 -1088z"/>
</g>
</svg>
